# xmcd CD database file
# Copyright (C) 1993-1996 Ti Kan
#
# Track frame offsets:
#  150
#  16911
#  38711
#  60390
#  85774
#  105493
#  125551
#  147409
#  171805
#  188449
#  206789
#
# Disc length: 2984 seconds
#
# Revision: 1
# Processed by: cddbd v1.5.2PL0 Copyright (c) Steve Scherf et al.
# Submitted via: Advanced CD Ripper Pro 2.0
#
DISCID=8b0ba60b
DTITLE=MURAT BAÞARAN - CANIN SAÐOLSUN
DYEAR=2007
DGENRE=OTHER
TTITLE0=CANIN SAÐOLSUN
TTITLE1=KADER BU
TTITLE2=YIKILSIN MEYHANELER
TTITLE3=YÝNE O ZALÝME DÜÞTÜM
TTITLE4=BEDDUA
TTITLE5=VÝCDANSIZ
TTITLE6=MAÐRUR
TTITLE7=KARARIM KARAR
TTITLE8=SEVGÝ DÝLENÝR OLDUM
TTITLE9=CANIN SAÐOLSUN 2. VERSION
TTITLE10=KADER BU 2.  VERSION
EXTD=
EXTT0=
EXTT1=
EXTT2=
EXTT3=
EXTT4=
EXTT5=
EXTT6=
EXTT7=
EXTT8=
EXTT9=
EXTT10=
PLAYORDER=
